<svg xmlns="http://www.w3.org/2000/svg" viewBox="0 0 64 64" role="img" aria-labelledby="title desc">
  <title>Onboarding HRO</title>
  <desc>Favicon stylise pour la plateforme Onboarding HRO</desc>
  <defs>
    <linearGradient id="bg" x1="0" y1="0" x2="1" y2="1">
      <stop offset="0%" stop-color="#1f8b63"/>
      <stop offset="100%" stop-color="#1c2c3b"/>
    </linearGradient>
    <linearGradient id="accent" x1="0" y1="0" x2="1" y2="1">
      <stop offset="0%" stop-color="#f3faf5"/>
      <stop offset="100%" stop-color="#d8f0e2"/>
    </linearGradient>
  </defs>
  <rect x="4" y="4" width="56" height="56" rx="16" fill="url(#bg)"/>
  <path d="M18 24c0-2.2 1.8-4 4-4h20c2.2 0 4 1.8 4 4v16c0 2.2-1.8 4-4 4H22c-2.2 0-4-1.8-4-4V24Z" fill="url(#accent)" opacity="0.95"/>
  <path d="M24 20v24M36 20v24M20 30h24" stroke="#1f8b63" stroke-width="3.2" stroke-linecap="round" stroke-linejoin="round"/>
  <path d="M44 16l3 4 4 1-4 1-3 4-1-4-4-1 4-1 1-4Z" fill="#f3faf5" opacity="0.95"/>
</svg>
